<?xml version="1.0" encoding="utf-8"?>
<!-- Generator: Adobe Illustrator 22.1.0, SVG Export Plug-In . SVG Version: 6.00 Build 0)  -->
<svg version="1.1" xmlns="http://www.w3.org/2000/svg" xmlns:xlink="http://www.w3.org/1999/xlink" x="0px" y="0px"
	 viewBox="0 0 2686 173" style="enable-background:new 0 0 2686 173;" xml:space="preserve">
<style type="text/css">
	.st0{display:none;}
	.st1{display:inline;}
	.st2{display:inline;fill:none;stroke:#B3B3B3;stroke-miterlimit:10;}
	.st3{display:inline;fill:none;stroke:#B3B3B3;stroke-width:1.5;stroke-miterlimit:10;}
	.st4{fill:#EBEBEB;}
	.st5{fill:none;stroke:#808080;stroke-miterlimit:10;}
</style>
<g id="Layer_1" class="st0">
	<path class="st1" d="M857.5-17.5c0,49.7,0,99.3,0,149c581,0,1339,0,1920,0c0-7.3,0-14.7,0-22c-229.9-81.4-593.7-97-719-97
		c-291.4,0.1-422.7,84.8-707,76C1136.8,81.8,964.8,25.9,857.5-17.5z"/>
	<path class="st2" d="M853.5,43.5c128.4,34.5,322.2,73,557,64c294.7-11.3,424.5-88.8,710-112c219.4-17.9,515.9,4.9,663,62
		c13.7,5.3,78.6,31.4,169,49c39.1,7.6,89.8,17.2,156,16c46.4-0.8,91-9.9,180-28c85.6-17.4,130.1-31.7,172-50c17.7-7.7,32-14.8,42-20
		"/>
</g>
<g id="Layer_2" class="st0">
	<path class="st1" d="M223.2,74.6c0,0,83.3-1.5,127.3-1.1c294.4,2.6,347.4,38.6,602,44c460.3,9.9,461.5-104.1,838-80
		c314.6,20.1,337.2,101.1,704,110C2685.7,152.1,2909,129,2909,129v44H223L223.2,74.6z"/>
	<path class="st3" d="M0,19.9c34.7,1.2,70.6,3.4,107.5,6.6c339.3,29.7,396.7,119.1,673,117c293.4-2.2,296.5-103.4,657-120
		c180-8.3,325.9,10.2,561,40c287.4,36.4,340.6,66,519,74c58.8,2.6,115.5,2.2,168.5-0.5"/>
</g>
<g id="Layer_3">
	<path class="st4" d="M2686,114c-75-52-192.7-81.8-547-43c-356,39-418.6,50.2-504,48c-321.9-8.2-365-107.2-640-87
		c-212.7,15.6-268.6,75.6-488,90c-307.2,20.1-356-59-507-6l0,57h2686V114z"/>
</g>
<g id="Layer_4">
	<path class="st5" d="M2685.5,67.5c-80.4-10.7-206.8-43.1-361-33c-191.4,12.6-201.5,31.3-425,75c-179,35-331,39.5-477,5
		c-199-47-215.5-100-369-99c-149,1-241.7,42.1-423,90c-231,61-388.6,25.5-473,17C92.8,116,39,106.9,0.5,99.5"/>
</g>
</svg>
