<svg id="Layer_2" data-name="Layer 2" xmlns="http://www.w3.org/2000/svg" viewBox="0 0 2686 173"><defs><style>.cls-1{fill:none;stroke:#b3b3b3;stroke-miterlimit:10;stroke-width:1.5px;}</style></defs><title>footer-wave</title><path d="M.24,74.6s83.31-1.48,127.26-1.1c294.44,2.57,347.43,38.55,602,44,460.28,9.85,461.53-104,838-80,314.56,20.1,337.16,101.12,704,110C2462.69,152.13,2686,129,2686,129v44H0Z"/><path class="cls-1" d="M0,19.88q52.11,1.86,107.5,6.62c339.33,29.75,396.67,119.07,673,117,293.38-2.2,296.49-103.4,657-120,180-8.29,325.88,10.2,561,40,287.43,36.43,340.58,66.05,519,74,58.82,2.62,115.47,2.18,168.5-.5"/></svg>