<svg id="Layer_2" data-name="Layer 2" xmlns="http://www.w3.org/2000/svg" viewBox="0 0 3493.32 166.71"><defs><style>.cls-1{fill:none;stroke:#b3b3b3;stroke-miterlimit:10;stroke-width:1.5px;}</style></defs><title>footer-wave</title><path d="M1.5,111.5a3666.08,3666.08,0,0,1,560-38c294.44,2.57,347.43,38.55,602,44,460.28,9.85,461.53-104,838-80,314.56,20.1,337.16,101.12,704,110,242.25,5.86,362.14,5.49,500-44,117-42,258-72,258-72,3,2,19.25,100,4,152-1158,1.33-2316-.33-3474,1C-3.83,161.17-1.17,134.83,1.5,111.5Z" transform="translate(7.63 -17.79)"/><path class="cls-1" d="M-7.5,50.5C115.41,29,308.12,6,541.5,26.5c339.33,29.75,396.67,119.07,673,117,293.38-2.2,296.49-103.4,657-120,180-8.29,325.88,10.2,561,40,287.43,36.43,340.58,66.05,519,74,224.87,10,410.42-25,534-57" transform="translate(7.63 -17.79)"/></svg>