<?xml version="1.0" encoding="utf-8"?>
<!-- Generator: Adobe Illustrator 22.1.0, SVG Export Plug-In . SVG Version: 6.00 Build 0)  -->
<svg version="1.1" id="Layer_1" xmlns="http://www.w3.org/2000/svg" xmlns:xlink="http://www.w3.org/1999/xlink" x="0px" y="0px"
	 viewBox="0 0 60 63" style="enable-background:new 0 0 60 63;" xml:space="preserve">
<style type="text/css">
	.st0{fill-rule:evenodd;clip-rule:evenodd;}
</style>
<path class="st0" d="M8.5,34v21.9h10.4V32.2V26H8.5V34z M52.9,35.2c-0.7-5.6-3.3-9.2-10.9-9.2c-4.5,0-7.5,1.6-8.7,4h-0.1v-4h-8.3
	v5.7v24.1h8.7V41.1c0-3.9,0.8-7.6,5.5-7.6c4.8,0,5.2,4.4,5.2,7.9v14.5h8.9V39.5C53.2,37.9,53.1,36.5,52.9,35.2L52.9,35.2z
	 M13.7,11.1c-2.9,0-5.2,2.3-5.2,5.2s2.3,5.2,5.2,5.2c2.9,0,5.2-2.3,5.2-5.2S16.6,11.1,13.7,11.1L13.7,11.1z"/>
</svg>
