<?xml version="1.0" encoding="utf-8"?>
<!-- Generator: Adobe Illustrator 23.0.3, SVG Export Plug-In . SVG Version: 6.00 Build 0)  -->
<svg version="1.1" id="Layer_1" xmlns="http://www.w3.org/2000/svg" xmlns:xlink="http://www.w3.org/1999/xlink" x="0px" y="0px"
	 viewBox="0 0 164.1 77.6" style="enable-background:new 0 0 164.1 77.6;" xml:space="preserve">
<style type="text/css">
	.st0{stroke:#FFFFFF;stroke-width:2;stroke-miterlimit:10;}
	.st1{fill:#808285;}
	.st2{fill:#939598;}
	.st3{fill:#FFFFFF;}
	.st4{fill:none;}
	.st5{font-family:'PinyonScript';}
	.st6{font-size:15px;}
</style>
<path class="st0" d="M161.8,75.2H2.2v-73h159.6V75.2z"/>
<path class="st1" d="M157.6,47.7c0,0-18-7-47-6.4c0,0,25.8,0.3,47,9.1C157.6,50.5,157.6,47.7,157.6,47.7"/>
<path class="st2" d="M157.6,45.6c0,0-27-10.5-79.7-2.3c-0.1,0-35.7,6.3-71.5-0.6V44c0,0,25,6.4,72.3,0.1c0.1,0.1,38.6-8.5,78.9,2.8
	L157.6,45.6z"/>
<path class="st2" d="M157.6,40.6c0,0-19.6-5-60.9-1.3c0,0,38-2.9,60.9,2.1L157.6,40.6z"/>
<path class="st2" d="M157.6,34.2c0,0-10.8-8.8-35.5-9.3c0.1,0,21.5-1,35.6,7.8C157.6,32.9,157.6,34.2,157.6,34.2"/>
<path class="st2" d="M127.9,25.5c0,0-24.7-2.6-48.8,14.5C79,40.1,101.1,22.2,127.9,25.5"/>
<path class="st2" d="M6.3,32.2c0,0,0.9,7.9,21.4,11.9c0,0-20.9-3-21.3-16.7C6.4,27.4,6.3,32.2,6.3,32.2"/>
<path class="st1" d="M83.3,40.3c0,0-21.5,15.5-64.7,3.2C18.7,43.6,56.9,57.7,83.3,40.3"/>
<path class="st1" d="M157.6,34.5c0,0-13.4-10-35.5-8.5c-22.1,1.5-30.4,8.2-39.7,13c-9.4,4.8-13.2,6.9-23.6,7.6
	c-10.5,0.7-32.4,0.9-49.1-8.3c0,0,12.5,11.3,47.4,9.5c0,0,11.3,0.9,33.8-11.7c0,0,16.9-10.6,36.3-8.9c0,0,20.1-0.9,30.5,9.6
	L157.6,34.5z"/>
<polygon class="st3" points="11.9,37 19.6,9.9 6,9.9 7,6.4 39.5,6.4 38.5,9.9 25.1,9.9 17.5,37 "/>
<path class="st3" d="M43.4,29.4l5,0.4c-0.7,1.8-2.4,3.6-4.9,5.2c-2.6,1.6-5.6,2.5-9.2,2.5c-2.2,0-4.2-0.4-6.1-1.1
	c-1.8-0.8-3.3-1.9-4.2-3.3c-1-1.4-1.5-3.1-1.5-4.9c0-2.4,0.8-4.8,2.3-7c1.5-2.3,3.5-4,5.9-5.1c2.4-1.1,5-1.7,7.8-1.7
	c3.6,0,6.4,0.8,8.5,2.5c2.1,1.6,3.2,3.9,3.2,6.7c0,1.1-0.1,2.2-0.4,3.3h-22c-0.1,0.4-0.1,0.8-0.1,1.2c0,2.1,0.6,3.7,1.9,4.7
	c1.3,1.1,2.9,1.6,4.7,1.6c1.7,0,3.5-0.4,5.2-1.3C41.2,32.3,42.5,31,43.4,29.4 M28.6,24h16.8c0-0.4,0-0.7,0-0.8
	c0-1.9-0.6-3.3-1.9-4.3c-1.3-1-2.9-1.5-4.9-1.5c-2.2,0-4.2,0.6-6,1.7C30.8,20.1,29.5,21.7,28.6,24"/>
<path class="st3" d="M59.7,33.9L58.8,37c-1.2,0.2-2.4,0.4-3.5,0.4c-2,0-3.6-0.4-4.8-1.1c-0.9-0.6-1.4-1.3-1.4-2.3
	c0-0.5,0.2-1.6,0.7-3.4l3.6-12.9h-4l0.8-2.9h4l1.5-5.4l5.8-2.6l-2.3,8h5l-0.8,2.9h-5L55.1,30c-0.4,1.6-0.6,2.5-0.6,2.8
	c0,0.4,0.2,0.8,0.5,1c0.3,0.2,0.9,0.4,1.7,0.4C57.8,34.2,58.8,34.1,59.7,33.9"/>
<path class="st3" d="M79.8,28.9l5.1,0.4c-1.3,2.8-3.1,4.8-5.4,6.2c-2.4,1.3-5,2-8,2c-3.2,0-5.9-0.8-7.9-2.3c-2-1.6-3-3.7-3-6.5
	c0-2.4,0.6-4.8,1.9-7.1c1.3-2.3,3.1-4.1,5.6-5.3c2.4-1.2,5.2-1.8,8.3-1.8c3.2,0,5.8,0.7,7.6,2c1.9,1.3,2.8,3.1,2.8,5.3l-5,0.2
	c0-1.4-0.6-2.5-1.6-3.3c-1.1-0.8-2.5-1.2-4.3-1.2c-2,0-3.8,0.5-5.3,1.4c-1.5,1-2.7,2.4-3.5,4.4c-0.9,2-1.3,3.8-1.3,5.6
	c0,1.9,0.6,3.3,1.7,4.3c1.1,0.9,2.5,1.4,4.2,1.4c1.7,0,3.2-0.5,4.7-1.4C77.8,32.2,78.9,30.8,79.8,28.9"/>
<path class="st3" d="M86.6,28.6c0-4.3,1.7-7.9,5.2-10.7c2.8-2.3,6.6-3.5,11.2-3.5c3.6,0,6.5,0.8,8.7,2.5c2.2,1.7,3.3,3.9,3.3,6.8
	c0,2.5-0.7,4.9-2.1,7.1c-1.4,2.2-3.4,3.9-5.9,5c-2.6,1.2-5.3,1.8-8.1,1.8c-2.3,0-4.4-0.4-6.4-1.1c-1.9-0.7-3.4-1.8-4.4-3.1
	C87.1,31.9,86.6,30.3,86.6,28.6 M91.7,28.2c0,2.1,0.7,3.7,2,4.7c1.4,1.1,3.1,1.6,5.2,1.6c1.1,0,2.2-0.2,3.2-0.5
	c1.1-0.3,2.1-0.8,3-1.5c0.9-0.7,1.7-1.4,2.4-2.3c0.6-0.9,1.2-1.8,1.6-2.8c0.6-1.4,0.9-2.7,0.9-4c0-2-0.7-3.6-2-4.7
	c-1.4-1.1-3.1-1.7-5.1-1.7c-1.6,0-3.1,0.3-4.4,0.8c-1.3,0.6-2.5,1.4-3.6,2.5c-1.1,1.1-1.8,2.3-2.3,3.8
	C91.9,25.8,91.7,27.1,91.7,28.2"/>
<path class="st3" d="M113.1,37l6.3-22.1h5.1l-1,3.6c1.9-1.6,3.6-2.7,5.1-3.3c1.5-0.6,3.1-0.9,4.9-0.9c1.9,0,3.4,0.4,4.7,1.1
	c1.2,0.7,2.1,1.7,2.5,3.1c1.5-1.4,3.1-2.4,4.8-3.1c1.7-0.7,3.5-1,5.3-1c2.5,0,4.4,0.4,5.6,1.3c1.2,0.9,1.9,2.1,1.9,3.7
	c0,0.7-0.2,1.8-0.6,3.4l-4,14.3h-5.1l4.1-14.6c0.4-1.2,0.5-2,0.5-2.6c0-0.7-0.3-1.3-0.9-1.7s-1.5-0.6-2.6-0.6c-1.5,0-3.1,0.3-4.6,1
	c-1.6,0.7-2.8,1.6-3.7,2.7c-0.9,1.1-1.6,2.8-2.3,5.1l-3,10.7h-5.1l4.2-14.9c0.3-1,0.5-1.7,0.5-2.2c0-0.7-0.3-1.3-0.9-1.8
	c-0.6-0.4-1.4-0.7-2.4-0.7c-1.4,0-3,0.3-4.5,1c-1.6,0.7-2.9,1.6-3.9,2.8c-1,1.2-1.8,2.9-2.5,5.2l-3,10.5H113.1z"/>
<rect x="3.3" y="53.9" class="st4" width="157.2" height="23.7"/>
<text transform="matrix(1 0 0 1 13.2268 65.5724)" class="st3 st5 st6">Network Services Limited</text>
</svg>
