<?xml version="1.0" encoding="utf-8"?>
<!-- Generator: Adobe Illustrator 22.1.0, SVG Export Plug-In . SVG Version: 6.00 Build 0)  -->
<svg version="1.1" id="Layer_1" xmlns="http://www.w3.org/2000/svg" xmlns:xlink="http://www.w3.org/1999/xlink" x="0px" y="0px"
	 viewBox="0 0 164.1 77.6" style="enable-background:new 0 0 164.1 77.6;" xml:space="preserve">
<style type="text/css">
	.st0{stroke:#FFFFFF;stroke-miterlimit:10;}
	.st1{fill:#FFFFFF;}
	.st2{fill:#808285;}
	.st3{fill:#939598;}
</style>
<g>
	<path class="st0" d="M161.8,75.2H2.2v-73h159.6V75.2z"/>
	<g>
		<path class="st1" d="M47.3,59.6c0-0.9,0.7-1.5,1.3-1.5c0.6-0.1,0.9,0.3,0.9,0.8c0,0.4-0.2,0.6-0.6,0.9c-0.3,0.2-0.5,0.4-0.5,0.6
			c0,0.5,0.8,1,2.5,0.8c2-0.2,3.9-1.2,5.3-2.2c-0.5-0.4-1.4-1.6-1.4-2.9c0-1.5,1.2-2.7,3-2.7c1.4,0.1,2.3,1.1,2.6,1.8
			c0.3-0.3,0.9-0.8,1.2-1.1c1.3-1.2,2.5-2.2,3.8-2.9c1-0.5,2-1,3-1c0.5,0,0.8,0.2,0.9,0.3c0.2,0.1,0.3,0.3,0.2,0.4
			c-0.1,0-0.1-0.1-0.3-0.2c-0.1-0.1-0.4-0.2-0.6-0.2c-0.3,0-0.6,0.1-0.8,0.3c-0.6,0.5-1.5,1.5-2,2.4c-1.6,2.2-3.3,4.8-4.7,7.1
			c0.4,0,0.9-0.2,1.4-0.4c0.5-0.3,1.2-0.8,1.6-1.2c0.1-0.1,0.2-0.1,0.3-0.1c0,0,0,0.2-0.2,0.3c-0.4,0.3-0.9,0.8-1.6,1.1
			c-0.5,0.3-1.1,0.4-1.6,0.5c-0.4,0.4-0.6,0.6-1,0.6c-0.7,0.2-0.7-0.2-0.6-0.4c0.1-0.2,0.2-0.3,0.2-0.4c-0.5-0.1-1.2-0.3-1.6-0.5
			c-0.6-0.2-1.2-0.6-1.5-0.9c-1,0.7-3.2,2.1-5.6,2.3C48.9,61.6,47.3,61,47.3,59.6L47.3,59.6z M57.8,53.8c-1.3,0-2,1.1-2.1,2.3
			c-0.1,1.1,0.5,2.1,0.8,2.5c0.5-0.4,1.2-1,1.8-1.6c0.6-0.5,1.2-1.1,1.8-1.6C59.7,54.5,58.9,53.8,57.8,53.8L57.8,53.8z M58.1,59.7
			c0.4,0.2,1.2,0.4,1.6,0.5c0.2-0.4,0.7-1,0.8-1.2c0.2-0.4,0.2-1.2,0.2-1.9c-0.1-0.6-0.1-1.1-0.3-1.5c-0.6,0.6-1.2,1.1-1.8,1.6
			c-0.7,0.6-1.3,1.1-1.8,1.6C57,59.2,57.6,59.5,58.1,59.7 M63.9,54.2c1.5-2,2.9-3.1,4.1-3.7v0c-0.6,0.1-1.5,0.4-2.4,0.9
			c-1.2,0.7-2.4,1.7-3.4,2.6c-0.6,0.6-1.1,1-1.6,1.5c0.1,0.4,0.3,0.9,0.3,1.6c0,0.5,0,1-0.1,1.4C61.4,57.6,63,55.3,63.9,54.2"/>
		<path class="st1" d="M65.3,57.9c-0.4,0.3-0.8,0.7-1,0.9C64.1,59,64.1,59,64,58.9c0-0.1,0.1-0.2,0.1-0.2c0.1-0.1,1.1-0.9,1.8-1.6
			c0.7-0.8,1.9-2.4,3-3.6c0.9-1,1.9-2.1,3-3.1c0.3-0.3,0.6-0.4,0.9-0.4c0.3,0,0.4,0.1,0.4,0.2c-0.5,0.5-2.7,2.9-3.8,4.2
			c-1.7,2-3.5,4.4-4,5.6c-0.1,0.2-0.2,0.5-0.1,0.7c0.2,0.1,0.6,0,0.8-0.2c0.3-0.2,0.7-0.4,1-0.7c0.5-0.4,0.8-0.6,1.1-0.9
			c0.1-0.1,0.3-0.3,0.4-0.2c0.1,0.1,0,0.2-0.2,0.3c-0.3,0.3-0.9,0.9-1.5,1.3c-0.5,0.4-1.4,1-2.3,1c-0.5,0-0.8-0.2-0.8-0.7
			C64,59.9,64.6,58.9,65.3,57.9L65.3,57.9z"/>
		<path class="st1" d="M68.5,58.9c-0.2,0.2-0.3,0.2-0.3,0.1c0-0.1,0-0.2,0.2-0.3c0.7-0.6,1.4-1.2,1.8-1.6c-0.3,0-0.6,0-0.9,0
			c-0.2,0-0.3,0-0.3-0.1c0-0.1,0.3-0.1,0.7-0.2c0.3,0,0.6,0,0.7,0c0.8-1,1.8-2.1,2.4-2.6c0.5-0.5,1.1-1,1.6-1c0.3,0,0.4,0.1,0.4,0.2
			c-0.3,0.3-1,1-1.5,1.6c-0.6,0.7-1,1.2-1.5,1.9c0.6,0,1,0,1.4,0c0.2,0,0.4,0,0.4,0.2c0,0.2-0.3,0.1-0.5,0.1c-0.6,0-1,0-1.5,0
			c-0.5,0.6-1.4,1.9-1.8,2.8c-0.2,0.3-0.2,0.6,0,0.7c0.2,0.1,0.4,0,0.6-0.1c0.3-0.2,0.7-0.4,1.1-0.8c0.5-0.4,0.9-0.8,1.2-1
			c0.1-0.1,0.3-0.3,0.4-0.2c0.1,0,0,0.1-0.2,0.3c-0.3,0.3-1,0.9-1.5,1.3c-0.5,0.4-1.4,1-2.3,1c-0.6,0-0.8-0.3-0.8-0.7
			c0-0.6,0.6-1.5,1.4-2.5C69.1,58.3,68.8,58.6,68.5,58.9"/>
		<path class="st1" d="M72.7,58.9c-0.2,0.2-0.3,0.2-0.3,0.2c-0.1-0.1,0.1-0.2,0.2-0.3c0.2-0.2,0.5-0.5,0.8-0.6
			c0.3-0.2,0.7-0.5,1.2-0.7c0.7-0.4,1.5-0.7,2.1-0.7c0.2,0,0.4,0,0.4,0.1c0,0.1-0.1,0.1-0.3,0.2c-0.6,0.3-1.1,0.7-1.8,1.4
			c-0.7,0.7-1.4,1.7-1.5,2.2c0,0.3,0.1,0.4,0.4,0.4c0.6,0,1.6-0.7,2.3-1.5c0-0.3,0.1-0.6,0.5-1.1c0.3-0.4,0.6-0.6,0.8-0.7
			c0.1-0.2,0.1-0.5,0.1-0.6c0-0.3-0.1-0.4,0-0.4c0.1-0.1,0.3,0.1,0.4,0.2c0.2,0.2,0.4,0.5,0.3,0.9c-0.1,0.6-0.7,1.3-1.4,2
			c0.1,0.1,0.4,0,0.5,0c0.2-0.1,0.5-0.2,0.9-0.4c0.3-0.2,0.5-0.4,0.8-0.7c0.2-0.2,0.4-0.3,0.4-0.3c0.1,0.1-0.1,0.2-0.3,0.5
			c-0.2,0.2-0.5,0.4-0.8,0.7c-0.4,0.3-0.7,0.4-1,0.5c-0.2,0.1-0.5,0.1-0.7-0.1c-0.7,0.5-1.8,1.2-2.9,1.2c-0.8,0-1.3-0.4-1.2-1.1
			c0-0.5,0.3-1.1,0.8-1.6l0,0C73,58.7,72.9,58.8,72.7,58.9"/>
		<path class="st1" d="M83.3,56.7c0.5,0.1,0.6,0.5,0.6,0.9h0c0.6-0.6,0.8-0.9,1.2-0.9c0.5,0,0.6,0.1,0.3,0.4c-0.5,0.5-0.8,1-1.3,1.7
			c-0.4,0.6-1.3,1.8-2.1,2.8c0.6-0.3,1.7-1,2.4-1.6c0.6-0.4,1-0.8,1.6-1.3c0.1-0.1,0.3-0.2,0.3-0.1c0.1,0.1-0.1,0.3-0.3,0.4
			c-0.4,0.4-0.9,0.8-1.5,1.2c-0.9,0.7-2,1.3-2.8,1.8c-1.1,1.6-2.7,3.7-3.5,4.5c-1.7,1.9-3.7,3.5-5.2,4.2c-0.7,0.4-1.3,0.5-1.7,0.5
			c-0.6,0-1.3-0.2-1.2-1.1c0.2-1.5,3.1-3.6,5.1-4.9c2.3-1.5,3.4-2,5.1-3.1c0.5-0.6,1.3-1.8,1.7-2.4l0,0c-0.7,0.6-1.8,1.4-2.7,1.4
			c-0.6,0-1.1-0.2-1-1c0.1-0.4,0.3-0.8,0.7-1.3l0,0c-0.1,0.1-0.2,0.2-0.3,0.3c-0.1,0.1-0.2,0.1-0.2,0.1c0-0.1,0.1-0.3,0.4-0.5
			c0.1-0.1,0.5-0.4,0.7-0.6c0.3-0.2,0.7-0.5,1.2-0.7C81.7,56.9,82.6,56.6,83.3,56.7 M75.2,65.7c-2.1,1.4-4,3.2-4.1,4.5
			c0,0.4,0.1,0.6,0.4,0.7c0.4,0.1,1.1-0.1,1.6-0.4c1.1-0.7,2.6-2,4.6-4.5c1-1.3,2-2.6,2.5-3.4C78.7,63.6,77.5,64.2,75.2,65.7
			 M80.9,58.6c-1,1-1.5,1.7-1.4,2c0,0.2,0.2,0.3,0.3,0.3c0.5,0,1.4-0.6,2.1-1.2c0.8-0.7,1.7-1.8,1.7-2.2c0-0.3-0.2-0.5-0.5-0.5
			C82.7,57,81.8,57.6,80.9,58.6"/>
		<path class="st1" d="M89.9,59.9c0.5-0.3,1.1-0.8,1.5-1.2c0.2-0.1,0.2-0.2,0.3-0.1c0.1,0.1-0.1,0.2-0.2,0.3c-0.3,0.3-1.1,1-1.6,1.3
			c-1.1,0.7-2,1-2.9,1c-0.9,0-1.4-0.4-1.3-1c0-0.5,0.3-1,0.8-1.6l0,0c-0.1,0.1-0.4,0.3-0.5,0.5c-0.1,0.1-0.2,0.1-0.3,0.1
			c-0.1-0.1,0-0.2,0.2-0.3c0.3-0.3,0.6-0.5,0.9-0.8c0.3-0.2,0.8-0.5,1.2-0.8c0.7-0.4,1.5-0.7,2.2-0.7h0c0.6,0,0.8,0.4,0.7,0.7
			c-0.1,0.7-0.9,1.2-1.6,1.5c-0.7,0.4-1.6,0.7-2.2,0.8C87,59.9,87,60.1,87,60.3c0,0.4,0.2,0.6,0.6,0.6
			C87.9,60.9,88.7,60.7,89.9,59.9 M89,58.7c0.6-0.4,1-1,1-1.3c0-0.2-0.1-0.4-0.3-0.4c-0.2,0-0.6,0.3-1.1,0.7c-0.4,0.4-1,1.2-1.3,1.7
			C87.8,59.3,88.5,59,89,58.7"/>
		<path class="st1" d="M91.5,58.9c-0.2,0.2-0.3,0.2-0.3,0.1c-0.1-0.1,0-0.2,0.2-0.3c0.7-0.6,1.4-1.2,1.8-1.6c-0.3,0-0.6,0-0.9,0
			c-0.2,0-0.3,0-0.3-0.1c0-0.1,0.3-0.1,0.7-0.2c0.3,0,0.6,0,0.7,0c0.8-1,1.8-2.1,2.4-2.6c0.5-0.5,1.1-1,1.6-1c0.3,0,0.4,0.1,0.4,0.2
			c-0.3,0.3-1,1-1.5,1.6c-0.6,0.7-1,1.2-1.5,1.9c0.6,0,1,0,1.4,0c0.2,0,0.4,0,0.4,0.2c0,0.2-0.3,0.1-0.5,0.1c-0.6,0-1,0-1.5,0
			c-0.5,0.6-1.4,1.9-1.8,2.8c-0.2,0.3-0.2,0.6,0,0.7c0.2,0.1,0.4,0,0.6-0.1c0.3-0.2,0.7-0.4,1.1-0.8c0.5-0.4,0.9-0.8,1.2-1
			c0.1-0.1,0.3-0.3,0.4-0.2c0,0,0,0.1-0.2,0.3c-0.3,0.3-1,0.9-1.5,1.3c-0.5,0.4-1.4,1-2.3,1c-0.6,0-0.8-0.3-0.8-0.7
			c0.1-0.6,0.6-1.5,1.4-2.5C92.1,58.3,91.8,58.6,91.5,58.9"/>
		<path class="st1" d="M100,61.2c-0.5,0-0.8-0.2-0.8-0.7c0-0.6,0.6-1.2,1.1-1.8c0.4-0.5,0.8-0.9,1.1-1.2c0.1-0.1,0.2-0.3,0-0.4
			c-0.1-0.1-0.4,0-0.7,0.2c-0.5,0.2-1.2,0.7-2,1.3c-1.1,0.9-1.7,1.4-2.8,2.3c-0.2,0.2-0.4,0.2-0.7,0.2c-0.4,0-0.5-0.1-0.3-0.4
			c0.3-0.5,0.6-1.1,1-1.7c0.2-0.3,0.5-0.6,0.8-1v0c-0.4,0.3-0.7,0.6-1,0.9c-0.2,0.1-0.2,0.2-0.3,0.1c0-0.1,0-0.2,0.1-0.2
			c0.1-0.1,1.1-0.9,1.6-1.4c0.9-1.1,1.9-2.5,3.1-3.8c1.5-1.7,4.5-4.9,5.9-5.8c0.7-0.5,1.4-1,2.1-1c0.7,0,0.9,0.5,0.8,0.9
			c-0.2,1.2-2.6,3.2-5.2,5.4c-1.5,1.3-3.3,2.5-5.1,4.1c-0.4,0.5-1.5,2-2.1,2.9l0,0c0.6-0.5,1.4-1.2,2.3-1.9c0.9-0.7,2-1.4,2.8-1.4
			c0.5,0,0.8,0.3,0.8,0.7c-0.1,0.5-0.6,1-1,1.5c-0.4,0.5-0.7,0.9-0.8,1.1c-0.2,0.3-0.2,0.5-0.1,0.6c0.1,0.1,0.4,0,0.6-0.1
			c0.3-0.2,0.6-0.3,1.2-0.8c0.4-0.3,0.9-0.8,1.2-1c0.2-0.2,0.3-0.2,0.3-0.2c0.1,0.1,0,0.2-0.2,0.3c-0.2,0.2-1,0.9-1.5,1.3
			C101.8,60.5,100.8,61.2,100,61.2 M103.7,52.6c2.4-2.1,4.7-4.1,4.8-5.2c0-0.3-0.2-0.5-0.4-0.5c-0.4,0-1.1,0.5-1.6,1
			c-0.8,0.8-2,2-3.4,3.6c-1.8,2.2-2.5,3-3.9,4.8C101.6,54.3,102.5,53.7,103.7,52.6"/>
		<path class="st1" d="M107.4,59.9c0.5-0.3,1.1-0.8,1.5-1.2c0.2-0.1,0.2-0.2,0.3-0.1c0,0.1-0.1,0.2-0.2,0.3c-0.3,0.3-1.1,1-1.6,1.3
			c-1.1,0.7-2,1-2.9,1c-0.9,0-1.4-0.4-1.3-1c0-0.5,0.3-1,0.8-1.6l0,0c-0.1,0.1-0.4,0.3-0.5,0.5c-0.1,0.1-0.2,0.1-0.3,0.1
			c0-0.1,0-0.2,0.2-0.3c0.3-0.3,0.6-0.5,0.9-0.8c0.3-0.2,0.8-0.5,1.2-0.8c0.7-0.4,1.5-0.7,2.2-0.7h0c0.6,0,0.8,0.4,0.7,0.7
			c-0.1,0.7-0.9,1.2-1.6,1.5c-0.7,0.4-1.6,0.7-2.2,0.8c-0.1,0.2-0.2,0.4-0.2,0.6c0,0.4,0.2,0.6,0.6,0.6
			C105.5,60.9,106.3,60.7,107.4,59.9 M106.6,58.7c0.6-0.4,1-1,1-1.3c0-0.2-0.1-0.4-0.3-0.4c-0.2,0-0.6,0.3-1.1,0.7
			c-0.4,0.4-1,1.2-1.3,1.7C105.4,59.3,106.1,59,106.6,58.7"/>
		<path class="st1" d="M113.4,57.4c0,0.3-0.6,0.9-1.2,1.5c-0.4,0.5-0.7,0.9-0.9,1.2c-0.1,0.2-0.1,0.4,0,0.5c0.1,0.1,0.3,0.1,0.6-0.1
			c0.3-0.2,0.7-0.4,1.1-0.8c0.6-0.4,0.9-0.7,1.2-1c0.2-0.2,0.3-0.3,0.4-0.2c0.1,0.1-0.1,0.2-0.3,0.4c-0.3,0.3-0.8,0.7-1.4,1.2
			c-0.5,0.4-1.4,1-2.2,1c-0.5,0-0.8-0.3-0.8-0.7c0-0.6,0.7-1.3,1.2-1.8c0.6-0.6,1.6-1.3,1.6-1.4c0.1-0.3-0.4-0.2-1-0.2
			c-0.3,0-0.5,0-0.6-0.1c-0.2,0.2-0.6,0.6-1,1c-0.4,0.4-0.7,0.7-1,0.9c-0.2,0.2-0.3,0.3-0.4,0.2c0-0.1,0-0.2,0.3-0.4
			c0.3-0.3,0.5-0.5,1-0.9c0.4-0.3,0.7-0.7,0.9-0.9c-0.2-0.2-0.3-0.5,0-0.8c0.2-0.3,0.6-0.4,1-0.4c0.2,0,0.4,0.1,0.5,0.3
			c-0.2,0.1-0.3,0.2-0.4,0.4c-0.3,0.4-0.3,0.5,0.1,0.6C112.6,56.9,113.4,56.9,113.4,57.4L113.4,57.4z"/>
		<path class="st1" d="M126.7,60c0-0.8,0.8-1.4,1.6-1.4c0.4,0,0.8,0.2,0.8,0.6c0,0.4-0.4,0.6-0.7,0.7c-0.3,0.1-0.6,0.2-0.6,0.5
			c-0.1,0.4,0.5,0.6,1,0.6c1.6,0,3.5-1.8,3.6-3.9c0.1-1.2-1-1.6-1.5-1.6c-0.3,0-0.5,0.1-0.7,0.1c-0.3,0-0.6-0.1-0.6-0.2
			c0-0.2,0.4-0.2,0.7-0.2c0.3,0,0.5,0,0.8,0.1c1.1-0.2,2.2-1.1,2.5-2.3c0.2-0.8,0-1.4-0.6-1.8c-0.2,0.2-0.4,0.4-0.6,0.6
			c-0.9,0.9-1.8,2.1-3.1,3.9c-2.3,3.2-5.1,5.8-8,5.8c-1.6,0-2.7-0.5-2.7-1.9c0-1.5,1.2-3.6,4.2-5.8c2.9-2.1,6.4-3.1,9-3.1
			c0.4,0,0.7,0,1,0.1c0.9-0.6,1.7-1.1,2.4-1.4c0.7-0.3,1.6-0.5,2.5-0.5c0.8,0,1.5,0.3,1.8,0.7c0.1,0.1,0.1,0.2,0,0.2
			c0,0-0.1,0-0.2-0.1c-0.3-0.3-0.9-0.6-1.6-0.6c-0.7,0-1.6,0.2-2.4,0.6c-0.6,0.3-1.3,0.7-2,1.3c0.9,0.4,1.6,1,1.4,2.1
			c-0.2,1.4-2,2.2-3.2,2.4v0c1.5,0.3,2.3,1.1,2.2,2.2c-0.1,2.1-2.4,3.6-4.9,3.6C127.8,61.3,126.7,61,126.7,60 M121.2,61.3
			c2.3,0,3.9-2.3,5.9-4.9c1.6-2.1,3.5-3.9,4.7-4.9c0.2-0.2,0.4-0.3,0.6-0.5c-0.2,0-0.5-0.1-0.8-0.1c-2.4,0-5.7,1-8.4,3
			c-2.8,2.1-3.6,4.3-3.6,5.6C119.6,60.6,120.1,61.3,121.2,61.3"/>
		<path class="st1" d="M136.5,59.9c0.5-0.3,1.1-0.8,1.5-1.2c0.2-0.1,0.2-0.2,0.3-0.1c0.1,0.1,0,0.2-0.2,0.3c-0.3,0.3-1.1,1-1.6,1.3
			c-1.1,0.7-2,1-2.9,1c-0.9,0-1.4-0.4-1.3-1c0-0.5,0.3-1,0.8-1.6l0,0c-0.1,0.1-0.4,0.3-0.5,0.5c-0.1,0.1-0.2,0.1-0.3,0.1
			c0-0.1,0.1-0.2,0.2-0.3c0.3-0.3,0.6-0.5,0.9-0.8c0.3-0.2,0.8-0.5,1.2-0.8c0.7-0.4,1.5-0.7,2.2-0.7h0c0.6,0,0.8,0.4,0.7,0.7
			c-0.1,0.7-0.9,1.2-1.6,1.5c-0.7,0.4-1.6,0.7-2.2,0.8c-0.1,0.2-0.2,0.4-0.2,0.6c0,0.4,0.2,0.6,0.6,0.6
			C134.6,60.9,135.4,60.7,136.5,59.9 M135.7,58.7c0.6-0.4,1-1,1-1.3c0-0.2-0.1-0.4-0.3-0.4c-0.2,0-0.6,0.3-1.1,0.7
			c-0.4,0.4-1,1.2-1.3,1.7C134.5,59.3,135.1,59,135.7,58.7"/>
		<path class="st1" d="M138.2,58.9c-0.2,0.2-0.3,0.2-0.3,0.1c-0.1-0.1,0-0.2,0.2-0.3c0.7-0.6,1.4-1.2,1.8-1.6c-0.3,0-0.6,0-0.9,0
			c-0.2,0-0.3,0-0.3-0.1c0-0.1,0.3-0.1,0.7-0.2c0.3,0,0.6,0,0.7,0c0.8-1,1.8-2.1,2.4-2.6c0.5-0.5,1.1-1,1.6-1c0.3,0,0.4,0.1,0.4,0.2
			c-0.3,0.3-1,1-1.5,1.6c-0.6,0.7-1,1.2-1.5,1.9c0.6,0,1,0,1.4,0c0.2,0,0.4,0,0.4,0.2c0,0.2-0.3,0.1-0.5,0.1c-0.6,0-1,0-1.5,0
			c-0.5,0.6-1.4,1.9-1.8,2.8c-0.2,0.3-0.2,0.6,0,0.7c0.2,0.1,0.4,0,0.6-0.1c0.3-0.2,0.7-0.4,1.1-0.8c0.5-0.4,0.9-0.8,1.2-1
			c0.1-0.1,0.3-0.3,0.4-0.2c0,0,0,0.1-0.2,0.3c-0.3,0.3-1,0.9-1.5,1.3c-0.5,0.4-1.4,1-2.3,1c-0.6,0-0.8-0.3-0.8-0.7
			c0.1-0.6,0.6-1.5,1.4-2.5C138.8,58.3,138.5,58.6,138.2,58.9"/>
		<path class="st1" d="M142.4,58.9c-0.2,0.2-0.3,0.2-0.3,0.1c0-0.1,0-0.2,0.2-0.3c0.7-0.6,1.4-1.2,1.8-1.6c-0.3,0-0.6,0-0.9,0
			c-0.2,0-0.3,0-0.3-0.1c0-0.1,0.3-0.1,0.7-0.2c0.3,0,0.6,0,0.7,0c0.8-1,1.8-2.1,2.4-2.6c0.5-0.5,1.1-1,1.6-1c0.3,0,0.4,0.1,0.4,0.2
			c-0.3,0.3-1,1-1.5,1.6c-0.6,0.7-1,1.2-1.5,1.9c0.6,0,1,0,1.4,0c0.2,0,0.4,0,0.4,0.2c0,0.2-0.3,0.1-0.5,0.1c-0.6,0-1,0-1.5,0
			c-0.5,0.6-1.4,1.9-1.8,2.8c-0.2,0.3-0.2,0.6,0,0.7c0.2,0.1,0.4,0,0.6-0.1c0.3-0.2,0.7-0.4,1.1-0.8c0.5-0.4,0.9-0.8,1.2-1
			c0.1-0.1,0.3-0.3,0.4-0.2c0.1,0,0,0.1-0.2,0.3c-0.3,0.3-1,0.9-1.5,1.3c-0.5,0.4-1.4,1-2.3,1c-0.6,0-0.8-0.3-0.8-0.7
			c0-0.6,0.6-1.5,1.4-2.5C143,58.3,142.7,58.6,142.4,58.9"/>
		<path class="st1" d="M150.3,59.9c0.5-0.3,1.1-0.8,1.5-1.2c0.2-0.1,0.2-0.2,0.3-0.1c0.1,0.1-0.1,0.2-0.2,0.3
			c-0.3,0.3-1.1,1-1.6,1.3c-1.1,0.7-2,1-2.9,1c-0.9,0-1.4-0.4-1.3-1c0-0.5,0.3-1,0.8-1.6l0,0c-0.1,0.1-0.4,0.3-0.5,0.5
			c-0.1,0.1-0.2,0.1-0.3,0.1c-0.1-0.1,0.1-0.2,0.2-0.3c0.3-0.3,0.6-0.5,0.9-0.8c0.3-0.2,0.8-0.5,1.2-0.8c0.7-0.4,1.5-0.7,2.2-0.7h0
			c0.6,0,0.8,0.4,0.7,0.7c0,0.7-0.9,1.2-1.6,1.5c-0.7,0.4-1.6,0.7-2.2,0.8c-0.1,0.2-0.2,0.4-0.2,0.6c0,0.4,0.2,0.6,0.6,0.6
			C148.4,60.9,149.2,60.7,150.3,59.9 M149.5,58.7c0.6-0.4,1-1,1-1.3c0-0.2-0.1-0.4-0.3-0.4c-0.2,0-0.6,0.3-1.1,0.7
			c-0.4,0.4-1,1.2-1.3,1.7C148.3,59.3,148.9,59,149.5,58.7"/>
		<path class="st1" d="M156.2,57.4c0,0.3-0.6,0.9-1.2,1.5c-0.4,0.5-0.7,0.9-0.9,1.2c-0.1,0.2-0.1,0.4,0,0.5c0.1,0.1,0.3,0.1,0.6-0.1
			c0.3-0.2,0.7-0.4,1.1-0.8c0.6-0.4,0.9-0.7,1.2-1c0.2-0.2,0.3-0.3,0.4-0.2c0.1,0.1-0.1,0.2-0.3,0.4c-0.3,0.3-0.8,0.7-1.4,1.2
			c-0.5,0.4-1.4,1-2.2,1c-0.5,0-0.8-0.3-0.8-0.7c0-0.6,0.7-1.3,1.2-1.8c0.6-0.6,1.6-1.3,1.6-1.4c0.1-0.3-0.4-0.2-1-0.2
			c-0.3,0-0.5,0-0.6-0.1c-0.2,0.2-0.6,0.6-1,1c-0.4,0.4-0.7,0.7-1,0.9c-0.2,0.2-0.3,0.3-0.4,0.2c0-0.1,0-0.2,0.3-0.4
			c0.3-0.3,0.5-0.5,1-0.9c0.4-0.3,0.7-0.7,0.9-0.9c-0.2-0.2-0.3-0.5,0-0.8c0.2-0.3,0.6-0.4,1-0.4c0.2,0,0.4,0.1,0.5,0.3
			c-0.2,0.1-0.3,0.2-0.4,0.4c-0.3,0.4-0.3,0.5,0.1,0.6C155.5,56.9,156.2,56.9,156.2,57.4L156.2,57.4z"/>
		<path class="st2" d="M157.6,47.7c0,0-18-7-47-6.4c0,0,25.8,0.3,47,9.1C157.6,50.5,157.6,47.7,157.6,47.7"/>
		<path class="st3" d="M157.6,45.6c0,0-27-10.5-79.7-2.3c-0.1,0-35.7,6.3-71.5-0.6V44c0,0,25,6.4,72.3,0.1
			c0.1,0.1,38.6-8.5,78.9,2.8L157.6,45.6z"/>
		<path class="st3" d="M157.6,40.6c0,0-19.6-5-60.9-1.3c0,0,38-2.9,60.9,2.1L157.6,40.6z"/>
		<path class="st3" d="M157.6,34.2c0,0-10.8-8.8-35.5-9.3c0.1,0,21.5-1,35.6,7.8C157.6,32.9,157.6,34.2,157.6,34.2"/>
		<path class="st3" d="M127.9,25.5c0,0-24.7-2.6-48.8,14.5C79,40.1,101.1,22.2,127.9,25.5"/>
		<path class="st3" d="M6.3,32.2c0,0,0.9,7.9,21.4,11.9c0,0-20.9-3-21.3-16.7C6.4,27.4,6.3,32.2,6.3,32.2"/>
		<path class="st2" d="M83.3,40.3c0,0-21.5,15.5-64.7,3.2C18.7,43.6,56.9,57.7,83.3,40.3"/>
		<path class="st2" d="M157.6,34.5c0,0-13.4-10-35.5-8.5c-22.1,1.5-30.4,8.2-39.7,13c-9.4,4.8-13.2,6.9-23.6,7.6
			c-10.5,0.7-32.4,0.9-49.1-8.3c0,0,12.5,11.3,47.4,9.5c0,0,11.3,0.9,33.8-11.7c0,0,16.9-10.6,36.3-8.9c0,0,20.1-0.9,30.5,9.6
			L157.6,34.5z"/>
		<polygon class="st1" points="11.9,37 19.6,9.9 6,9.9 7,6.4 39.5,6.4 38.5,9.9 25.1,9.9 17.5,37 		"/>
		<path class="st1" d="M43.4,29.4l5,0.4c-0.7,1.8-2.4,3.6-4.9,5.2c-2.6,1.6-5.6,2.5-9.2,2.5c-2.2,0-4.2-0.4-6.1-1.1
			c-1.8-0.8-3.3-1.9-4.2-3.3c-1-1.4-1.5-3.1-1.5-4.9c0-2.4,0.8-4.8,2.3-7c1.5-2.3,3.5-4,5.9-5.1c2.4-1.1,5-1.7,7.8-1.7
			c3.6,0,6.4,0.8,8.5,2.5c2.1,1.6,3.2,3.9,3.2,6.7c0,1.1-0.1,2.2-0.4,3.3h-22c-0.1,0.4-0.1,0.8-0.1,1.2c0,2.1,0.6,3.7,1.9,4.7
			c1.3,1.1,2.9,1.6,4.7,1.6c1.7,0,3.5-0.4,5.2-1.3C41.2,32.3,42.5,31,43.4,29.4 M28.6,24h16.8c0-0.4,0-0.7,0-0.8
			c0-1.9-0.6-3.3-1.9-4.3c-1.3-1-2.9-1.5-4.9-1.5c-2.2,0-4.2,0.6-6,1.7C30.8,20.1,29.5,21.7,28.6,24"/>
		<path class="st1" d="M59.7,33.9L58.8,37c-1.2,0.2-2.4,0.4-3.5,0.4c-2,0-3.6-0.4-4.8-1.1c-0.9-0.6-1.4-1.3-1.4-2.3
			c0-0.5,0.2-1.6,0.7-3.4l3.6-12.9h-4l0.8-2.9h4l1.5-5.4l5.8-2.6l-2.3,8h5l-0.8,2.9h-5L55.1,30c-0.4,1.6-0.6,2.5-0.6,2.8
			c0,0.4,0.2,0.8,0.5,1c0.3,0.2,0.9,0.4,1.7,0.4C57.8,34.2,58.8,34.1,59.7,33.9"/>
		<path class="st1" d="M79.8,28.9l5.1,0.4c-1.3,2.8-3.1,4.8-5.4,6.2c-2.4,1.3-5,2-8,2c-3.2,0-5.9-0.8-7.9-2.3c-2-1.6-3-3.7-3-6.5
			c0-2.4,0.6-4.8,1.9-7.1c1.3-2.3,3.1-4.1,5.6-5.3c2.4-1.2,5.2-1.8,8.3-1.8c3.2,0,5.8,0.7,7.6,2c1.9,1.3,2.8,3.1,2.8,5.3l-5,0.2
			c0-1.4-0.6-2.5-1.6-3.3c-1.1-0.8-2.5-1.2-4.3-1.2c-2,0-3.8,0.5-5.3,1.4c-1.5,1-2.7,2.4-3.5,4.4c-0.9,2-1.3,3.8-1.3,5.6
			c0,1.9,0.6,3.3,1.7,4.3c1.1,0.9,2.5,1.4,4.2,1.4c1.7,0,3.2-0.5,4.7-1.4C77.8,32.2,78.9,30.8,79.8,28.9"/>
		<path class="st1" d="M86.6,28.6c0-4.3,1.7-7.9,5.2-10.7c2.8-2.3,6.6-3.5,11.2-3.5c3.6,0,6.5,0.8,8.7,2.5c2.2,1.7,3.3,3.9,3.3,6.8
			c0,2.5-0.7,4.9-2.1,7.1c-1.4,2.2-3.4,3.9-5.9,5c-2.6,1.2-5.3,1.8-8.1,1.8c-2.3,0-4.4-0.4-6.4-1.1c-1.9-0.7-3.4-1.8-4.4-3.1
			C87.1,31.9,86.6,30.3,86.6,28.6 M91.7,28.2c0,2.1,0.7,3.7,2,4.7c1.4,1.1,3.1,1.6,5.2,1.6c1.1,0,2.2-0.2,3.2-0.5
			c1.1-0.3,2.1-0.8,3-1.5c0.9-0.7,1.7-1.4,2.4-2.3c0.6-0.9,1.2-1.8,1.6-2.8c0.6-1.4,0.9-2.7,0.9-4c0-2-0.7-3.6-2-4.7
			c-1.4-1.1-3.1-1.7-5.1-1.7c-1.6,0-3.1,0.3-4.4,0.8c-1.3,0.6-2.5,1.4-3.6,2.5c-1.1,1.1-1.8,2.3-2.3,3.8
			C91.9,25.8,91.7,27.1,91.7,28.2"/>
		<path class="st1" d="M113.1,37l6.3-22.1h5.1l-1,3.6c1.9-1.6,3.6-2.7,5.1-3.3c1.5-0.6,3.1-0.9,4.9-0.9c1.9,0,3.4,0.4,4.7,1.1
			c1.2,0.7,2.1,1.7,2.5,3.1c1.5-1.4,3.1-2.4,4.8-3.1c1.7-0.7,3.5-1,5.3-1c2.5,0,4.4,0.4,5.6,1.3c1.2,0.9,1.9,2.1,1.9,3.7
			c0,0.7-0.2,1.8-0.6,3.4l-4,14.3h-5.1l4.1-14.6c0.4-1.2,0.5-2,0.5-2.6c0-0.7-0.3-1.3-0.9-1.7s-1.5-0.6-2.6-0.6
			c-1.5,0-3.1,0.3-4.6,1c-1.6,0.7-2.8,1.6-3.7,2.7c-0.9,1.1-1.6,2.8-2.3,5.1l-3,10.7h-5.1l4.2-14.9c0.3-1,0.5-1.7,0.5-2.2
			c0-0.7-0.3-1.3-0.9-1.8c-0.6-0.4-1.4-0.7-2.4-0.7c-1.4,0-3,0.3-4.5,1c-1.6,0.7-2.9,1.6-3.9,2.8c-1,1.2-1.8,2.9-2.5,5.2l-3,10.5
			H113.1z"/>
	</g>
</g>
</svg>
