<?xml version="1.0" encoding="utf-8"?>
<!-- Generator: Adobe Illustrator 22.1.0, SVG Export Plug-In . SVG Version: 6.00 Build 0)  -->
<svg version="1.1" id="Layer_1" xmlns="http://www.w3.org/2000/svg" xmlns:xlink="http://www.w3.org/1999/xlink" x="0px" y="0px"
	 viewBox="0 0 1366 317" style="enable-background:new 0 0 1366 317;" xml:space="preserve">
<style type="text/css">
	.st0{stroke:#000000;stroke-miterlimit:10;}
	.st1{fill:none;stroke:#4D4D4D;stroke-miterlimit:10;}
</style>
<path class="st0" d="M0.5,60.5c0,69.3,0,138.7,0,208c76.2,14.4,198.5,31.5,349,24c190.4-9.5,216.9-48,371-41
	c183,8.3,223.5,66.1,383,57c112.4-6.4,202.5-41.5,261-70c-0.3-66.7-0.7-133.3-1-200c-73.1-20.7-181.2-41.7-309-28
	c-157,16.9-180.6,68.7-327,80c-154,11.9-195-40.2-385-55C241.4,27.6,127.1,32.6,0.5,60.5z"/>
<path class="st1" d="M0.5,23.5C140-5,246,6.4,317.5,22.5c94.5,21.2,120.1,48.6,214,59c106.8,11.8,119.7-18.5,270-31
	c169.2-14,208.9,19.7,381,1c78.8-8.6,141.9-23.5,181-34"/>
<path class="st1" d="M-0.5,302.5c39.8-12.4,103-29.5,182-40c162.8-21.6,225.2,7.5,440,11c217.6,3.6,192.4-25.6,328-10
	c86.9,10,178.6,31.4,327,29c36.9-0.6,67.2-2.5,87-4"/>
</svg>
